<svg width="36" height="36" viewBox="0 0 36 36" fill="none" xmlns="http://www.w3.org/2000/svg">
<mask id="mask0_351_16" style="mask-type:luminance" maskUnits="userSpaceOnUse" x="0" y="0" width="36" height="36">
<path d="M18 34C20.1015 34.0027 22.1829 33.5901 24.1245 32.7858C26.066 31.9816 27.8295 30.8016 29.3136 29.3136C30.8016 27.8295 31.9816 26.066 32.7858 24.1245C33.5901 22.1829 34.0027 20.1015 34 18C34.0027 15.8985 33.59 13.8171 32.7858 11.8755C31.9815 9.93399 30.8015 8.17049 29.3136 6.68641C27.8295 5.19843 26.066 4.01841 24.1245 3.21416C22.1829 2.40991 20.1015 1.99729 18 2.00001C15.8985 1.99733 13.8171 2.40997 11.8755 3.21422C9.93399 4.01847 8.17049 5.19847 6.68641 6.68641C5.19847 8.17049 4.01847 9.93399 3.21422 11.8755C2.40997 13.8171 1.99733 15.8985 2.00001 18C1.99729 20.1015 2.40991 22.1829 3.21416 24.1245C4.01841 26.066 5.19843 27.8295 6.68641 29.3136C8.17049 30.8015 9.93399 31.9815 11.8755 32.7858C13.8171 33.59 15.8985 34.0027 18 34Z" fill="white" stroke="white" stroke-width="4" stroke-linejoin="round"/>
<path d="M11.6001 17.9999L16.4001 22.7999L26.0001 13.2" stroke="black" stroke-width="4" stroke-linecap="round" stroke-linejoin="round"/>
</mask>
<g mask="url(#mask0_351_16)">
<path d="M-1.19995 -1.19995H37.2V37.2H-1.19995V-1.19995Z" fill="#FF6347"/>
</g>
</svg>
