<svg width="16" height="16" viewBox="0 0 16 16" fill="none" xmlns="http://www.w3.org/2000/svg">
<path d="M8.834 0.0138983C9.597 0.100898 10.334 0.308898 10.844 0.897898C11.349 1.4789 11.5 2.2759 11.5 3.1979C11.5 3.6649 11.413 4.3169 11.343 4.8349L11.328 4.9479H12.75C13.353 4.9479 13.924 5.0329 14.418 5.2809C14.926 5.5349 15.329 5.9599 15.555 6.4809C16.008 7.4789 15.993 8.9279 15.743 10.7969L15.703 11.1029C15.598 11.8929 15.508 12.5759 15.39 13.1359C15.259 13.7659 15.075 14.3449 14.722 14.8079C13.97 15.7949 12.706 15.9479 11 15.9479C9.152 15.9479 7.766 15.6149 6.612 15.2949C6.447 15.2499 6.289 15.2049 6.137 15.1619C5.479 14.9759 4.937 14.8219 4.412 14.7469C4.29651 15.0965 4.07372 15.4007 3.77533 15.6163C3.47694 15.8319 3.11814 15.948 2.75 15.9479H1.75C1.28587 15.9479 0.840752 15.7635 0.512563 15.4353C0.184374 15.1071 0 14.662 0 14.1979L0 6.6979C0 5.7319 0.784 4.9479 1.75 4.9479H2.75C3.05663 4.94787 3.35789 5.0284 3.62361 5.18144C3.88932 5.33448 4.11016 5.55465 4.264 5.8199C4.522 5.7149 4.854 5.5519 5.182 5.3119C5.853 4.8219 6.5 4.0269 6.5 2.6979V2.1979C6.5 0.995898 7.494 -0.139102 8.834 0.0138983ZM4.5 13.2479C5.205 13.3359 5.89 13.5319 6.572 13.7259L7.013 13.8509C8.109 14.1559 9.347 14.4489 11 14.4489C12.794 14.4489 13.28 14.2259 13.528 13.8999C13.675 13.7069 13.804 13.3949 13.922 12.8299C14.027 12.3279 14.11 11.7059 14.217 10.8999L14.257 10.5999C14.507 8.7179 14.446 7.6669 14.189 7.1029C14.1052 6.89432 13.948 6.7236 13.747 6.6229C13.539 6.5189 13.227 6.4489 12.75 6.4489H11C10.314 6.4489 9.705 5.8719 9.794 5.1129C9.817 4.9209 9.844 4.7229 9.87 4.5269C9.935 4.0389 10 3.5569 10 3.1989C10 2.3899 9.856 2.0489 9.712 1.8829C9.575 1.7249 9.31 1.5789 8.664 1.5049C8.357 1.4689 8 1.7409 8 2.1979V2.6979C8 4.6199 7.022 5.8259 6.067 6.5229C5.58876 6.8708 5.06039 7.14393 4.5 7.3329V13.2479ZM2.75 6.4479H1.75C1.6837 6.4479 1.62011 6.47424 1.57322 6.52112C1.52634 6.56801 1.5 6.63159 1.5 6.6979V14.1979C1.5 14.3359 1.612 14.4479 1.75 14.4479H2.75C2.8163 14.4479 2.87989 14.4216 2.92678 14.3747C2.97366 14.3278 3 14.2642 3 14.1979V6.6979C3 6.63159 2.97366 6.56801 2.92678 6.52112C2.87989 6.47424 2.8163 6.4479 2.75 6.4479Z" fill="black"/>
</svg>
