<svg width="13" height="15" viewBox="0 0 13 15" fill="none" xmlns="http://www.w3.org/2000/svg">
<path fill-rule="evenodd" clip-rule="evenodd" d="M6.5 3.65624e-06C5.46208 -0.00131933 4.45863 0.356433 3.67453 1.00735C2.89042 1.65826 2.3785 2.55848 2.23307 3.54214C2.08764 4.5258 2.31851 5.52663 2.88314 6.36023C3.44777 7.19383 4.30811 7.80403 5.30566 8.07841C3.88813 8.24318 2.67242 8.72273 1.75589 9.5875C0.590045 10.6864 0 12.3239 0 14.4602C0 14.6034 0.0594134 14.7407 0.16517 14.8419C0.270927 14.9431 0.414364 15 0.563927 15C0.713489 15 0.856927 14.9431 0.962683 14.8419C1.06844 14.7407 1.12785 14.6034 1.12785 14.4602C1.12785 12.5057 1.66566 11.1875 2.54776 10.3557C3.43105 9.52273 4.75123 9.09091 6.5 9.09091C8.24877 9.09091 9.56895 9.52273 10.4534 10.3557C11.3343 11.1886 11.8721 12.5057 11.8721 14.4602C11.8721 14.6034 11.9316 14.7407 12.0373 14.8419C12.1431 14.9431 12.2865 15 12.4361 15C12.5856 15 12.7291 14.9431 12.8348 14.8419C12.9406 14.7407 13 14.6034 13 14.4602C13 12.3239 12.41 10.6875 11.2429 9.5875C10.3288 8.72387 9.11187 8.24318 7.69434 8.07841C8.68855 7.80095 9.54499 7.18981 10.1067 6.35701C10.6684 5.52422 10.8977 4.52556 10.7526 3.54408C10.6075 2.56261 10.0977 1.66406 9.31663 1.01314C8.53558 0.362218 7.53561 0.00253038 6.5 3.65624e-06ZM3.3242 4.11932C3.3242 3.31312 3.65879 2.53995 4.25437 1.96988C4.84995 1.39981 5.65772 1.07955 6.5 1.07955C7.34227 1.07955 8.15005 1.39981 8.74563 1.96988C9.34121 2.53995 9.6758 3.31312 9.6758 4.11932C9.6758 4.92552 9.34121 5.6987 8.74563 6.26876C8.15005 6.83883 7.34227 7.15909 6.5 7.15909C5.65772 7.15909 4.84995 6.83883 4.25437 6.26876C3.65879 5.6987 3.3242 4.92552 3.3242 4.11932Z" fill="black"/>
</svg>
