<svg width="10" height="10" viewBox="0 0 10 10" fill="none" xmlns="http://www.w3.org/2000/svg">
<path d="M9.52631 2.24552C9.34342 2.43438 9.16592 2.61769 9.16054 2.801C9.1444 2.97875 9.32729 3.16206 9.49942 3.33426C9.75761 3.612 10.0104 3.86196 9.99967 4.13415C9.98891 4.40633 9.71458 4.68963 9.44025 4.96737L7.2187 7.26705L6.45487 6.47827L8.74097 4.12304L8.22458 3.58978L7.46075 4.373L5.44361 2.28996L7.50916 0.162477C7.71895 -0.0541591 8.06859 -0.0541591 8.26761 0.162477L9.52631 1.4623C9.73609 1.66782 9.73609 2.02888 9.52631 2.24552ZM0 7.91696L5.14238 2.60103L7.15953 4.68407L2.01715 10H0V7.91696Z" fill="black"/>
</svg>
