<svg width="16" height="14" viewBox="0 0 16 14" fill="none" xmlns="http://www.w3.org/2000/svg">
<path d="M0.88948 13.125L0.0628462 12.8012C0.0037811 12.9475 -0.0140947 13.1068 0.0111029 13.2623C0.0363005 13.4177 0.103638 13.5636 0.206018 13.6845C0.308397 13.8055 0.442026 13.897 0.592817 13.9494C0.743609 14.0019 0.905978 14.0133 1.06281 13.9825L0.88948 13.125ZM5.07243 12.306L5.49374 11.5351L5.21198 11.3863L4.8991 11.4476L5.07243 12.306ZM2.33298 9.55235L3.15961 9.8761L3.3045 9.51385L3.13028 9.16473L2.33298 9.55235ZM14.2223 6.99998C14.2223 9.84023 11.6864 12.25 8.41807 12.25V14C12.5432 14 16 10.9252 16 6.99998H14.2223ZM2.61475 6.99998C2.61475 4.15974 5.15154 1.75 8.41896 1.75V0C4.29379 0 0.836149 3.07474 0.836149 6.99998H2.61475ZM8.41896 1.75C11.6864 1.75 14.2223 4.15974 14.2223 6.99998H16C16 3.07474 12.5441 0 8.41896 0V1.75ZM8.41807 12.25C7.34701 12.25 6.34971 11.9875 5.49374 11.5351L4.65111 13.076C5.81004 13.6862 7.1038 14.0037 8.41807 14V12.25ZM1.06281 13.9825L5.24575 13.1635L4.8991 11.4476L0.716154 12.2666L1.06281 13.9833V13.9825ZM3.13028 9.16473C2.79081 8.49203 2.61494 7.75112 2.61475 6.99998H0.836149C0.836149 8.04998 1.08681 9.04573 1.53479 9.93998L3.13028 9.16473ZM1.50723 9.2286L0.0628462 12.8021L1.71434 13.4478L3.15784 9.87523L1.50634 9.2286H1.50723Z" fill="black"/>
<path d="M5.33368 7.875C5.82458 7.875 6.22253 7.48325 6.22253 7C6.22253 6.51675 5.82458 6.125 5.33368 6.125C4.84278 6.125 4.44482 6.51675 4.44482 7C4.44482 7.48325 4.84278 7.875 5.33368 7.875Z" fill="black"/>
<path d="M8.44452 7.875C8.93542 7.875 9.33337 7.48325 9.33337 7C9.33337 6.51675 8.93542 6.125 8.44452 6.125C7.95362 6.125 7.55566 6.51675 7.55566 7C7.55566 7.48325 7.95362 7.875 8.44452 7.875Z" fill="black"/>
<path d="M11.5554 7.875C12.0463 7.875 12.4442 7.48325 12.4442 7C12.4442 6.51675 12.0463 6.125 11.5554 6.125C11.0645 6.125 10.6665 6.51675 10.6665 7C10.6665 7.48325 11.0645 7.875 11.5554 7.875Z" fill="black"/>
</svg>
